<?xml version="1.0" standalone="no"?>
<!DOCTYPE svg PUBLIC "-//W3C//DTD SVG 20010904//EN"
 "http://www.w3.org/TR/2001/REC-SVG-20010904/DTD/svg10.dtd">
<svg version="1.0" xmlns="http://www.w3.org/2000/svg"
 width="700.000000pt" height="700.000000pt" viewBox="0 0 700.000000 700.000000"
 preserveAspectRatio="xMidYMid meet">
<metadata>
Created by potrace 1.14, written by Peter Selinger 2001-2017
</metadata>
<g transform="translate(0.000000,700.000000) scale(0.100000,-0.100000)"
fill="#000000" stroke="none">
<path d="M1610 5594 c-300 -251 -557 -466 -573 -478 l-27 -22 161 -192 160
-193 52 44 c29 24 286 238 572 476 286 238 521 436 523 440 3 8 -307 381 -316
381 -4 0 -252 -206 -552 -456z"/>
<path d="M4676 5863 c-86 -103 -156 -190 -155 -193 1 -8 1149 -963 1153 -959
1 2 71 86 154 186 83 100 153 186 154 191 3 9 -1130 962 -1144 962 -3 0 -77
-84 -162 -187z"/>
<path d="M3360 5504 c-795 -54 -1504 -520 -1864 -1222 -108 -212 -180 -431
-222 -672 -21 -126 -30 -457 -15 -591 88 -785 550 -1444 1256 -1790 799 -391
1747 -273 2439 303 380 318 659 789 754 1278 32 160 42 269 42 447 0 370 -79
697 -247 1026 -331 647 -961 1097 -1683 1201 -108 15 -363 27 -460 20z m1372
-1351 c87 -87 158 -162 158 -168 0 -5 -413 -423 -918 -928 l-917 -917 -490
490 -490 490 163 162 162 163 328 -328 328 -328 755 760 c414 417 756 760 759
760 3 1 76 -70 162 -156z"/>
</g>
</svg>
