<?xml version="1.0" encoding="UTF-8"?>
<svg id="Layer_1" data-name="Layer 1" xmlns="http://www.w3.org/2000/svg" viewBox="0 0 260 260">
  <defs>
    <style>
      .cls-1 {
        fill: none;
      }
    </style>
  </defs>
  <path class="cls-1" d="m0,0h260v260H0V0Z"/>
  <path d="m114.18,157.41l-23.08-23.08-11.48,11.48,34.45,34.45,65-65-11.48-11.48-53.41,53.62ZM187.82,19.61l49.91,41.65-13.87,16.63-49.94-41.63,13.9-16.65Zm-115.63,0l13.89,16.64-49.92,41.64-13.87-16.64,49.9-41.64Zm57.82,23.73c-53.84,0-97.5,43.66-97.5,97.5s43.66,97.5,97.5,97.5,97.5-43.66,97.5-97.5-43.66-97.5-97.5-97.5Zm0,173.33c-41.82,0-75.83-34.02-75.83-75.83s34.02-75.83,75.83-75.83,75.83,34.02,75.83,75.83-34.02,75.83-75.83,75.83Z"/>
</svg>