<?xml version="1.0" encoding="UTF-8"?>
<svg id="Layer_1" data-name="Layer 1" xmlns="http://www.w3.org/2000/svg" viewBox="0 0 260 260">
  <defs>
    <style>
      .cls-1 {
        fill: none;
      }

      .cls-2 {
        fill: #4d0194;
      }
    </style>
  </defs>
  <path class="cls-1" d="m0,0h260v260H0V0Z"/>
  <polygon class="cls-2" points="187.82 19.61 237.73 61.26 223.86 77.89 173.92 36.26 187.82 19.61"/>
  <polygon class="cls-2" points="72.18 19.61 86.07 36.25 36.15 77.89 22.28 61.25 72.18 19.61"/>
  <path class="cls-2" d="m130,43.33c-53.84,0-97.5,43.66-97.5,97.5s43.66,97.5,97.5,97.5,97.5-43.66,97.5-97.5-43.66-97.5-97.5-97.5Zm-19.39,145.6l-42.26-42.26,14.09-14.09,28.31,28.31,65.52-65.78,14.09,14.09-79.74,79.74Z"/>
</svg>